<?xml version="1.0" encoding="UTF-8" standalone="no"?>
<svg
   xmlns:dc="http://purl.org/dc/elements/1.1/"
   xmlns:cc="http://creativecommons.org/ns#"
   xmlns:rdf="http://www.w3.org/1999/02/22-rdf-syntax-ns#"
   xmlns:svg="http://www.w3.org/2000/svg"
   xmlns="http://www.w3.org/2000/svg"
   xmlns:sodipodi="http://sodipodi.sourceforge.net/DTD/sodipodi-0.dtd"
   xmlns:inkscape="http://www.inkscape.org/namespaces/inkscape"
   width="2362pt"
   height="609pt"
   viewBox="0 0 2362 609"
   version="1.1"
   id="svg2"
   inkscape:version="0.47 r22583"
   sodipodi:docname="fsd.png">
  <metadata
     id="metadata48">
    <rdf:RDF>
      <cc:Work
         rdf:about="">
        <dc:format>image/svg+xml</dc:format>
        <dc:type
           rdf:resource="http://purl.org/dc/dcmitype/StillImage" />
        <dc:title></dc:title>
      </cc:Work>
    </rdf:RDF>
  </metadata>
  <defs
     id="defs46">
    <inkscape:perspective
       sodipodi:type="inkscape:persp3d"
       inkscape:vp_x="0 : 380.625 : 1"
       inkscape:vp_y="0 : 1000 : 0"
       inkscape:vp_z="2952.5 : 380.625 : 1"
       inkscape:persp3d-origin="1476.25 : 253.75 : 1"
       id="perspective50" />
  </defs>
  <sodipodi:namedview
     pagecolor="#ffffff"
     bordercolor="#666666"
     borderopacity="1"
     objecttolerance="10"
     gridtolerance="10"
     guidetolerance="10"
     inkscape:pageopacity="0"
     inkscape:pageshadow="2"
     inkscape:window-width="1680"
     inkscape:window-height="988"
     id="namedview44"
     showgrid="false"
     inkscape:zoom="0.18289585"
     inkscape:cx="1476.25"
     inkscape:cy="380.625"
     inkscape:window-x="-8"
     inkscape:window-y="-8"
     inkscape:window-maximized="1"
     inkscape:current-layer="#be0000ff" />
  <g
     id="#be0000ff">
    <path
       fill="#be0000"
       opacity="1.00"
       d=" M 0.00 0.00 L 2362.00 0.00 L 2362.00 609.00 L 0.00 609.00 L 0.00 0.00 M 1280.18 113.34 C 1271.92 117.97 1264.65 124.78 1260.52 133.39 C 1254.94 143.89 1253.86 156.61 1257.23 167.97 C 1262.52 187.03 1281.18 201.31 1300.96 201.45 C 1320.07 202.16 1338.74 189.78 1345.55 171.93 C 1352.35 155.08 1348.21 134.56 1335.28 121.74 C 1329.10 115.81 1321.50 111.25 1313.11 109.32 C 1302.12 106.76 1290.18 108.06 1280.18 113.34 M 2183.46 109.75 C 2174.13 110.91 2165.20 114.97 2158.16 121.18 C 2145.89 131.81 2139.97 149.16 2143.22 165.07 C 2146.43 182.82 2160.96 197.79 2178.57 201.65 C 2195.17 205.62 2213.74 199.70 2224.66 186.50 C 2237.65 171.96 2239.44 149.00 2229.37 132.40 C 2220.36 116.59 2201.44 107.54 2183.46 109.75 M 600.30 123.33 C 600.32 231.52 600.32 339.71 600.30 447.90 C 627.44 447.91 654.57 447.94 681.71 447.88 C 681.64 339.72 681.77 231.55 681.65 123.38 C 654.53 123.25 627.41 123.36 600.30 123.33 M 120.40 254.47 C 120.19 260.57 120.42 266.68 120.25 272.79 C 137.68 272.91 155.12 272.93 172.55 272.79 C 172.99 300.54 172.63 328.31 172.73 356.06 C 172.29 380.14 179.81 404.90 196.13 422.96 C 212.73 441.56 237.15 452.47 261.93 453.75 C 280.10 454.61 298.22 451.03 315.44 445.45 C 315.46 428.44 315.48 411.44 315.44 394.44 C 302.73 398.66 288.29 399.16 276.10 393.05 C 267.79 389.20 261.88 381.43 258.99 372.89 C 254.57 360.76 255.57 347.66 255.47 335.00 C 255.52 314.28 255.35 293.56 255.54 272.84 C 275.54 272.81 295.54 273.03 315.53 272.73 C 315.41 256.22 315.40 239.70 315.53 223.18 C 314.03 222.94 312.53 222.73 311.02 222.74 C 292.51 222.78 274.01 222.79 255.50 222.73 C 255.47 195.20 255.39 167.67 255.54 140.14 C 248.67 140.08 241.79 140.13 234.92 140.09 C 196.64 178.11 158.64 216.41 120.40 254.47 M 381.02 239.16 C 362.94 252.44 348.88 271.11 341.18 292.19 C 334.18 311.25 332.20 332.03 334.79 352.14 C 337.48 373.28 345.84 393.91 359.79 410.15 C 369.32 421.82 381.58 431.09 394.86 438.13 C 414.04 447.96 435.57 452.71 457.04 453.29 C 480.92 454.07 504.89 448.25 525.98 437.10 C 538.41 430.41 550.29 422.07 559.25 411.07 C 549.15 399.39 539.54 387.25 529.12 375.86 C 525.27 379.46 521.32 382.99 516.92 385.93 C 502.55 395.80 484.25 399.05 467.15 396.52 C 454.47 394.86 441.87 389.28 433.62 379.26 C 426.60 370.96 423.16 360.11 423.02 349.32 C 470.76 349.16 518.50 349.27 566.23 349.26 C 571.01 322.45 566.87 293.82 553.01 270.22 C 542.35 251.71 526.10 236.51 506.97 227.01 C 491.20 219.24 473.61 215.09 456.01 215.33 C 429.35 215.10 402.50 223.24 381.02 239.16 M 818.92 216.22 C 797.57 218.65 776.79 226.52 759.52 239.38 C 744.71 250.32 732.57 264.90 724.57 281.49 C 715.85 299.27 712.00 319.25 712.55 339.00 C 713.12 358.32 717.86 377.73 727.65 394.50 C 738.09 413.00 754.27 428.04 773.11 437.75 C 790.94 447.16 810.98 451.92 831.03 453.07 C 864.69 455.24 899.16 444.62 925.49 423.48 C 929.93 419.60 934.69 415.93 938.12 411.05 C 927.97 399.43 918.25 387.43 908.08 375.83 C 901.61 382.06 894.33 387.51 886.19 391.35 C 871.80 397.76 855.31 398.82 840.02 395.46 C 827.43 392.55 815.43 385.34 808.73 374.06 C 803.95 366.72 802.26 357.94 801.66 349.34 C 828.10 349.12 854.55 349.31 880.99 349.24 C 902.21 349.35 923.45 349.03 944.66 349.40 C 946.73 342.14 946.72 334.50 946.87 327.01 C 947.07 301.44 938.28 275.80 921.99 256.03 C 909.27 240.11 891.80 228.14 872.58 221.50 C 855.44 215.46 836.90 214.07 818.92 216.22 M 1035.11 239.78 C 1035.22 240.34 1035.43 241.46 1035.53 242.02 C 1035.19 241.51 1034.50 240.49 1034.16 239.99 C 1033.39 240.92 1032.64 241.85 1031.89 242.78 C 1021.06 234.48 1010.53 225.79 999.93 217.21 C 993.18 217.07 986.43 217.08 979.68 217.24 C 979.85 324.97 979.75 432.70 979.74 540.43 C 1006.73 540.54 1033.72 540.32 1060.71 540.55 C 1061.06 510.39 1060.82 480.22 1060.82 450.06 C 1073.82 451.71 1086.84 453.85 1100.00 453.70 C 1124.04 454.11 1148.58 449.58 1169.76 437.83 C 1188.93 427.53 1204.83 411.40 1215.05 392.20 C 1232.75 358.25 1234.04 316.15 1218.52 281.16 C 1209.59 261.34 1194.87 244.12 1176.43 232.56 C 1157.28 220.53 1134.50 214.59 1111.93 215.32 C 1084.79 215.55 1056.52 222.41 1035.11 239.78 M 1893.22 233.11 C 1878.31 242.48 1865.97 255.74 1857.18 270.96 C 1846.13 289.93 1840.83 312.08 1841.31 333.98 C 1841.22 354.50 1846.10 375.13 1855.96 393.18 C 1863.58 407.46 1874.67 419.75 1887.53 429.51 C 1905.12 442.39 1926.27 450.13 1947.88 452.55 C 1971.27 455.28 1994.98 453.01 2017.93 448.11 C 2042.17 447.63 2066.44 448.08 2090.70 447.89 C 2090.64 370.98 2090.68 294.08 2090.68 217.18 C 2083.93 217.32 2077.07 216.65 2070.40 217.49 C 2059.80 225.76 2049.41 234.32 2038.90 242.72 C 2017.24 223.35 1987.48 215.61 1958.96 215.33 C 1935.94 214.56 1912.58 220.55 1893.22 233.11 M 1261.30 447.87 C 1288.43 447.94 1315.57 447.93 1342.71 447.88 C 1342.59 372.16 1342.78 296.44 1342.61 220.72 C 1315.54 220.77 1288.46 220.78 1261.38 220.71 C 1261.23 296.43 1261.41 372.15 1261.30 447.87 M 1385.23 220.70 C 1384.97 237.71 1385.20 254.73 1385.12 271.74 C 1414.19 271.66 1443.26 271.67 1472.33 271.73 C 1459.18 296.91 1445.33 321.72 1431.95 346.78 C 1413.64 380.42 1395.55 414.18 1377.23 447.82 C 1447.57 447.99 1517.91 447.93 1588.25 447.85 C 1588.23 431.65 1588.20 415.44 1588.26 399.24 C 1560.13 398.94 1531.99 399.29 1503.86 399.07 C 1514.20 378.88 1525.42 359.15 1535.96 339.07 C 1555.57 302.94 1574.96 266.69 1594.53 230.54 C 1596.26 227.39 1598.22 224.31 1599.19 220.81 C 1527.87 220.64 1456.55 220.85 1385.23 220.70 M 1621.55 221.34 C 1621.58 238.13 1621.53 254.93 1621.57 271.72 C 1650.72 271.72 1679.86 271.58 1709.01 271.79 C 1677.25 330.46 1645.62 389.20 1613.71 447.78 C 1684.10 448.08 1754.50 447.84 1824.90 447.90 C 1824.82 431.65 1824.91 415.40 1824.85 399.15 C 1807.23 399.11 1789.61 399.15 1771.99 399.13 C 1761.42 398.95 1750.82 399.51 1740.28 398.81 C 1754.00 373.65 1767.57 348.41 1781.25 323.23 C 1799.42 289.22 1818.17 255.51 1836.11 221.38 C 1764.59 221.27 1693.06 221.36 1621.55 221.34 Z"
       id="path5" />
    <path
       fill="#be0000"
       opacity="1.00"
       d=" M 2184.18 119.17 C 2201.92 116.44 2220.09 128.80 2224.74 146.01 C 2229.37 160.96 2222.88 178.27 2209.93 186.91 C 2198.91 194.71 2183.56 195.68 2171.69 189.23 C 2157.66 182.13 2149.06 165.52 2152.11 149.99 C 2154.60 134.21 2168.31 121.03 2184.18 119.17 M 2170.63 130.29 C 2170.93 147.32 2170.67 164.35 2170.75 181.38 C 2174.03 181.49 2177.32 181.47 2180.63 181.44 C 2180.71 175.19 2180.66 168.94 2180.66 162.69 C 2183.75 162.68 2186.86 162.71 2189.98 162.72 C 2192.97 169.10 2196.48 175.22 2199.74 181.46 C 2203.49 181.45 2207.26 181.46 2211.03 181.47 C 2207.62 174.58 2203.40 168.12 2200.07 161.20 C 2201.97 159.39 2204.79 158.69 2206.38 156.45 C 2210.85 150.80 2210.93 141.98 2206.86 136.09 C 2203.56 131.99 2198.14 130.01 2192.98 130.11 C 2185.52 130.14 2178.07 129.94 2170.63 130.29 Z"
       id="path7" />
    <path
       fill="#be0000"
       opacity="1.00"
       d=" M 2180.63 138.70 C 2185.72 138.91 2191.14 137.82 2195.95 140.00 C 2200.97 142.69 2200.71 151.40 2195.10 153.18 C 2190.44 154.72 2185.42 154.06 2180.63 153.80 C 2180.70 148.77 2180.69 143.73 2180.63 138.70 Z"
       id="path9" />
    <path
       fill="#be0000"
       opacity="1.00"
       d=" M 441.59 274.63 C 451.76 266.37 466.82 265.56 478.26 271.63 C 489.06 277.78 495.76 289.58 497.94 301.55 C 474.08 301.53 450.22 301.64 426.36 301.50 C 428.97 291.47 433.43 281.37 441.59 274.63 Z"
       id="path11" />
    <path
       fill="#be0000"
       opacity="1.00"
       d=" M 819.95 275.03 C 829.85 266.52 845.04 265.48 856.49 271.41 C 867.88 277.28 874.13 289.54 877.12 301.51 C 853.16 301.57 829.20 301.63 805.24 301.48 C 807.66 291.60 812.06 281.75 819.95 275.03 Z"
       id="path13" />
    <path
       fill="#be0000"
       opacity="1.00"
       d=" M 1079.61 274.69 C 1090.30 266.22 1106.14 265.40 1117.85 272.26 C 1126.40 277.66 1131.75 286.86 1134.79 296.30 C 1139.10 310.04 1139.92 324.62 1139.47 338.93 C 1138.66 353.31 1135.79 367.93 1128.52 380.51 C 1122.55 390.83 1112.76 399.46 1100.85 401.88 C 1090.60 403.89 1079.51 402.86 1070.26 397.80 C 1066.92 396.11 1063.94 393.85 1060.92 391.68 C 1060.81 373.44 1060.90 355.19 1060.87 336.95 C 1060.98 323.48 1061.28 309.71 1065.56 296.80 C 1068.33 288.46 1072.62 280.26 1079.61 274.69 Z"
       id="path15" />
    <path
       fill="#be0000"
       opacity="1.00"
       d=" M 1957.13 270.04 C 1967.80 265.83 1980.65 267.19 1989.94 274.02 C 1996.01 278.56 2000.34 285.11 2003.15 292.09 C 2007.31 302.19 2008.73 313.17 2009.31 324.00 C 2009.38 346.55 2009.28 369.10 2009.36 391.65 C 2000.94 398.73 1990.12 403.24 1979.01 402.79 C 1968.71 403.11 1958.37 399.20 1951.02 391.95 C 1940.33 381.97 1935.11 367.61 1932.55 353.53 C 1930.27 339.45 1930.33 325.03 1932.31 310.92 C 1933.69 301.36 1936.37 291.82 1941.50 283.55 C 1945.29 277.74 1950.50 272.48 1957.13 270.04 Z"
       id="path17" />
  </g>
  <g
     id="#ffffffff">
    <path
       fill="#ffffff"
       opacity="1.00"
       d=" M 1280.18 113.34 C 1290.18 108.06 1302.12 106.76 1313.11 109.32 C 1321.50 111.25 1329.10 115.81 1335.28 121.74 C 1348.21 134.56 1352.35 155.08 1345.55 171.93 C 1338.74 189.78 1320.07 202.16 1300.96 201.45 C 1281.18 201.31 1262.52 187.03 1257.23 167.97 C 1253.86 156.61 1254.94 143.89 1260.52 133.39 C 1264.65 124.78 1271.92 117.97 1280.18 113.34 Z"
       id="path20" />
    <path
       fill="#ffffff"
       opacity="1.00"
       d=" M 2183.46 109.75 C 2201.44 107.54 2220.36 116.59 2229.37 132.40 C 2239.44 149.00 2237.65 171.96 2224.66 186.50 C 2213.74 199.70 2195.17 205.62 2178.57 201.65 C 2160.96 197.79 2146.43 182.82 2143.22 165.07 C 2139.97 149.16 2145.89 131.81 2158.16 121.18 C 2165.20 114.97 2174.13 110.91 2183.46 109.75 M 2184.18 119.17 C 2168.31 121.03 2154.60 134.21 2152.11 149.99 C 2149.06 165.52 2157.66 182.13 2171.69 189.23 C 2183.56 195.68 2198.91 194.71 2209.93 186.91 C 2222.88 178.27 2229.37 160.96 2224.74 146.01 C 2220.09 128.80 2201.92 116.44 2184.18 119.17 Z"
       id="path22" />
    <path
       fill="#ffffff"
       opacity="1.00"
       d=" M 600.30 123.33 C 627.41 123.36 654.53 123.25 681.65 123.38 C 681.77 231.55 681.64 339.72 681.71 447.88 C 654.57 447.94 627.44 447.91 600.30 447.90 C 600.32 339.71 600.32 231.52 600.30 123.33 Z"
       id="path24" />
    <path
       fill="#ffffff"
       opacity="1.00"
       d=" M 2170.63 130.29 C 2178.07 129.94 2185.52 130.14 2192.98 130.11 C 2198.14 130.01 2203.56 131.99 2206.86 136.09 C 2210.93 141.98 2210.85 150.80 2206.38 156.45 C 2204.79 158.69 2201.97 159.39 2200.07 161.20 C 2203.40 168.12 2207.62 174.58 2211.03 181.47 C 2207.26 181.46 2203.49 181.45 2199.74 181.46 C 2196.48 175.22 2192.97 169.10 2189.98 162.72 C 2186.86 162.71 2183.75 162.68 2180.66 162.69 C 2180.66 168.94 2180.71 175.19 2180.63 181.44 C 2177.32 181.47 2174.03 181.49 2170.75 181.38 C 2170.67 164.35 2170.93 147.32 2170.63 130.29 M 2180.63 138.70 C 2180.69 143.73 2180.70 148.77 2180.63 153.80 C 2185.42 154.06 2190.44 154.72 2195.10 153.18 C 2200.71 151.40 2200.97 142.69 2195.95 140.00 C 2191.14 137.82 2185.72 138.91 2180.63 138.70 Z"
       id="path26" />
    <path
       fill="#ffffff"
       opacity="1.00"
       d=" M 120.40 254.47 C 158.64 216.41 196.64 178.11 234.92 140.09 C 241.79 140.13 248.67 140.08 255.54 140.14 C 255.39 167.67 255.47 195.20 255.50 222.73 C 274.01 222.79 292.51 222.78 311.02 222.74 C 312.53 222.73 314.03 222.94 315.53 223.18 C 315.40 239.70 315.41 256.22 315.53 272.73 C 295.54 273.03 275.54 272.81 255.54 272.84 C 255.35 293.56 255.52 314.28 255.47 335.00 C 255.57 347.66 254.57 360.76 258.99 372.89 C 261.88 381.43 267.79 389.20 276.10 393.05 C 288.29 399.16 302.73 398.66 315.44 394.44 C 315.48 411.44 315.46 428.44 315.44 445.45 C 298.22 451.03 280.10 454.61 261.93 453.75 C 237.15 452.47 212.73 441.56 196.13 422.96 C 179.81 404.90 172.29 380.14 172.73 356.06 C 172.63 328.31 172.99 300.54 172.55 272.79 C 155.12 272.93 137.68 272.91 120.25 272.79 C 120.42 266.68 120.19 260.57 120.40 254.47 Z"
       id="path28" />
    <path
       fill="#ffffff"
       opacity="1.00"
       d=" M 381.02 239.16 C 402.50 223.24 429.35 215.10 456.01 215.33 C 473.61 215.09 491.20 219.24 506.97 227.01 C 526.10 236.51 542.35 251.71 553.01 270.22 C 566.87 293.82 571.01 322.45 566.23 349.26 C 518.50 349.27 470.76 349.16 423.02 349.32 C 423.16 360.11 426.60 370.96 433.62 379.26 C 441.87 389.28 454.47 394.86 467.15 396.52 C 484.25 399.05 502.55 395.80 516.92 385.93 C 521.32 382.99 525.27 379.46 529.12 375.86 C 539.54 387.25 549.15 399.39 559.25 411.07 C 550.29 422.07 538.41 430.41 525.98 437.10 C 504.89 448.25 480.92 454.07 457.04 453.29 C 435.57 452.71 414.04 447.96 394.86 438.13 C 381.58 431.09 369.32 421.82 359.79 410.15 C 345.84 393.91 337.48 373.28 334.79 352.14 C 332.20 332.03 334.18 311.25 341.18 292.19 C 348.88 271.11 362.94 252.44 381.02 239.16 M 441.59 274.63 C 433.43 281.37 428.97 291.47 426.36 301.50 C 450.22 301.64 474.08 301.53 497.94 301.55 C 495.76 289.58 489.06 277.78 478.26 271.63 C 466.82 265.56 451.76 266.37 441.59 274.63 Z"
       id="path30" />
    <path
       fill="#ffffff"
       opacity="1.00"
       d=" M 818.92 216.22 C 836.90 214.07 855.44 215.46 872.58 221.50 C 891.80 228.14 909.27 240.11 921.99 256.03 C 938.28 275.80 947.07 301.44 946.87 327.01 C 946.72 334.50 946.73 342.14 944.66 349.40 C 923.45 349.03 902.21 349.35 880.99 349.24 C 854.55 349.31 828.10 349.12 801.66 349.34 C 802.26 357.94 803.95 366.72 808.73 374.06 C 815.43 385.34 827.43 392.55 840.02 395.46 C 855.31 398.82 871.80 397.76 886.19 391.35 C 894.33 387.51 901.61 382.06 908.08 375.83 C 918.25 387.43 927.97 399.43 938.12 411.05 C 934.69 415.93 929.93 419.60 925.49 423.48 C 899.16 444.62 864.69 455.24 831.03 453.07 C 810.98 451.92 790.94 447.16 773.11 437.75 C 754.27 428.04 738.09 413.00 727.65 394.50 C 717.86 377.73 713.12 358.32 712.55 339.00 C 712.00 319.25 715.85 299.27 724.57 281.49 C 732.57 264.90 744.71 250.32 759.52 239.38 C 776.79 226.52 797.57 218.65 818.92 216.22 M 819.95 275.03 C 812.06 281.75 807.66 291.60 805.24 301.48 C 829.20 301.63 853.16 301.57 877.12 301.51 C 874.13 289.54 867.88 277.28 856.49 271.41 C 845.04 265.48 829.85 266.52 819.95 275.03 Z"
       id="path32" />
    <path
       fill="#ffffff"
       opacity="1.00"
       d=" M 1035.11 239.78 C 1056.52 222.41 1084.79 215.55 1111.93 215.32 C 1134.50 214.59 1157.28 220.53 1176.43 232.56 C 1194.87 244.12 1209.59 261.34 1218.52 281.16 C 1234.04 316.15 1232.75 358.25 1215.05 392.20 C 1204.83 411.40 1188.93 427.53 1169.76 437.83 C 1148.58 449.58 1124.04 454.11 1100.00 453.70 C 1086.84 453.85 1073.82 451.71 1060.82 450.06 C 1060.82 480.22 1061.06 510.39 1060.71 540.55 C 1033.72 540.32 1006.73 540.54 979.74 540.43 C 979.75 432.70 979.85 324.97 979.68 217.24 C 986.43 217.08 993.18 217.07 999.93 217.21 C 1010.53 225.79 1021.06 234.48 1031.89 242.78 C 1032.64 241.85 1033.39 240.92 1034.16 239.99 C 1034.50 240.49 1035.19 241.51 1035.53 242.02 C 1035.43 241.46 1035.22 240.34 1035.11 239.78 M 1079.61 274.69 C 1072.62 280.26 1068.33 288.46 1065.56 296.80 C 1061.28 309.71 1060.98 323.48 1060.87 336.95 C 1060.90 355.19 1060.81 373.44 1060.92 391.68 C 1063.94 393.85 1066.92 396.11 1070.26 397.80 C 1079.51 402.86 1090.60 403.89 1100.85 401.88 C 1112.76 399.46 1122.55 390.83 1128.52 380.51 C 1135.79 367.93 1138.66 353.31 1139.47 338.93 C 1139.92 324.62 1139.10 310.04 1134.79 296.30 C 1131.75 286.86 1126.40 277.66 1117.85 272.26 C 1106.14 265.40 1090.30 266.22 1079.61 274.69 Z"
       id="path34" />
    <path
       fill="#ffffff"
       opacity="1.00"
       d=" M 1893.22 233.11 C 1912.58 220.55 1935.94 214.56 1958.96 215.33 C 1987.48 215.61 2017.24 223.35 2038.90 242.72 C 2049.41 234.32 2059.80 225.76 2070.40 217.49 C 2077.07 216.65 2083.93 217.32 2090.68 217.18 C 2090.68 294.08 2090.64 370.98 2090.70 447.89 C 2066.44 448.08 2042.17 447.63 2017.93 448.11 C 1994.98 453.01 1971.27 455.28 1947.88 452.55 C 1926.27 450.13 1905.12 442.39 1887.53 429.51 C 1874.67 419.75 1863.58 407.46 1855.96 393.18 C 1846.10 375.13 1841.22 354.50 1841.31 333.98 C 1840.83 312.08 1846.13 289.93 1857.18 270.96 C 1865.97 255.74 1878.31 242.48 1893.22 233.11 M 1957.13 270.04 C 1950.50 272.48 1945.29 277.74 1941.50 283.55 C 1936.37 291.82 1933.69 301.36 1932.31 310.92 C 1930.33 325.03 1930.27 339.45 1932.55 353.53 C 1935.11 367.61 1940.33 381.97 1951.02 391.95 C 1958.37 399.20 1968.71 403.11 1979.01 402.79 C 1990.12 403.24 2000.94 398.73 2009.36 391.65 C 2009.28 369.10 2009.38 346.55 2009.31 324.00 C 2008.73 313.17 2007.31 302.19 2003.15 292.09 C 2000.34 285.11 1996.01 278.56 1989.94 274.02 C 1980.65 267.19 1967.80 265.83 1957.13 270.04 Z"
       id="path36" />
    <path
       fill="#ffffff"
       opacity="1.00"
       d=" M 1261.30 447.87 C 1261.41 372.15 1261.23 296.43 1261.38 220.71 C 1288.46 220.78 1315.54 220.77 1342.61 220.72 C 1342.78 296.44 1342.59 372.16 1342.71 447.88 C 1315.57 447.93 1288.43 447.94 1261.30 447.87 Z"
       id="path38" />
    <path
       fill="#ffffff"
       opacity="1.00"
       d=" M 1385.23 220.70 C 1456.55 220.85 1527.87 220.64 1599.19 220.81 C 1598.22 224.31 1596.26 227.39 1594.53 230.54 C 1574.96 266.69 1555.57 302.94 1535.96 339.07 C 1525.42 359.15 1514.20 378.88 1503.86 399.07 C 1531.99 399.29 1560.13 398.94 1588.26 399.24 C 1588.20 415.44 1588.23 431.65 1588.25 447.85 C 1517.91 447.93 1447.57 447.99 1377.23 447.82 C 1395.55 414.18 1413.64 380.42 1431.95 346.78 C 1445.33 321.72 1459.18 296.91 1472.33 271.73 C 1443.26 271.67 1414.19 271.66 1385.12 271.74 C 1385.20 254.73 1384.97 237.71 1385.23 220.70 Z"
       id="path40" />
    <path
       fill="#ffffff"
       opacity="1.00"
       d=" M 1621.55 221.34 C 1693.06 221.36 1764.59 221.27 1836.11 221.38 C 1818.17 255.51 1799.42 289.22 1781.25 323.23 C 1767.57 348.41 1754.00 373.65 1740.28 398.81 C 1750.82 399.51 1761.42 398.95 1771.99 399.13 C 1789.61 399.15 1807.23 399.11 1824.85 399.15 C 1824.91 415.40 1824.82 431.65 1824.90 447.90 C 1754.50 447.84 1684.10 448.08 1613.71 447.78 C 1645.62 389.20 1677.25 330.46 1709.01 271.79 C 1679.86 271.58 1650.72 271.72 1621.57 271.72 C 1621.53 254.93 1621.58 238.13 1621.55 221.34 Z"
       id="path42" />
  </g>
</svg>
